# xmcd
#
# Track frame offsets: 
#        150
#        21967
#        37715
#        51687
#        66860
#        95140
#        106635
#        118817
#        133442
#        152790
#
# Disc length: 2543 seconds
#
# Revision: 3
# Processed by: cddbd v1.5.2PL0 Copyright (c) Steve Scherf et al.
# Submitted via: ExactAudioCopy v0.95b4
#
DISCID=8e09ed0a
DTITLE=Taj Mahal / The Best of Taj Mahal Volume 1
DYEAR=1981
DGENRE=Blues
TTITLE0=Leaving Trunk
TTITLE1=She Caught the Katy and Left Me a Mule to Ride
TTITLE2=Fishing Blues
TTITLE3=Farther On Down the Road
TTITLE4=You're Going to Need Somebody on Your Bond
TTITLE5=Cakewalk Into Town
TTITLE6=Chevrolet
TTITLE7=Johnny Too Bad
TTITLE8=Take a Giant Step
TTITLE9=Ain't Gwine Whistle Dixie (Any Mo')
EXTD=Great Blues\n YEAR: 1981
EXTT0=
EXTT1=
EXTT2=
EXTT3=
EXTT4=
EXTT5=
EXTT6=
EXTT7=
EXTT8=
EXTT9=
PLAYORDER=
.
